<?xml version="1.0" encoding="utf-8"?>
<!-- Generator: Adobe Illustrator 23.0.1, SVG Export Plug-In . SVG Version: 6.00 Build 0)  -->
<svg version="1.1" id="Layer_1" xmlns="http://www.w3.org/2000/svg" xmlns:xlink="http://www.w3.org/1999/xlink" x="0px" y="0px"
	 viewBox="0 0 100 100" style="enable-background:new 0 0 100 100;" xml:space="preserve">
<path d="M30.2,77.7c-4.7,0-8.6-3.9-8.6-8.6s3.9-8.6,8.6-8.6s8.6,3.9,8.6,8.6S34.9,77.7,30.2,77.7z M30.2,66.1c-1.7,0-3,1.3-3,3
	s1.3,3,3,3s3-1.3,3-3S31.9,66.1,30.2,66.1z"/>
<path d="M70.1,37.8c-4.7,0-8.6-3.9-8.6-8.6s3.9-8.6,8.6-8.6s8.6,3.9,8.6,8.6S74.8,37.8,70.1,37.8z M70.1,26.2c-1.7,0-3,1.3-3,3
	s1.3,3,3,3s3-1.3,3-3S71.8,26.2,70.1,26.2z"/>
<rect x="28" y="46.7" transform="matrix(0.7027 -0.7115 0.7115 0.7027 -20.1843 50.5928)" width="44.8" height="5.6"/>
<path d="M 70.33 32.97 L 74.05 29.62 A 59 59 0 0 1 89.20 69.10 L 84.20 69.10 A 54 54  0 0 0 70.33 32.97 Z"/>
<path d="M 30.20 15.10 L 30.20 10.10 A 59 59 0 0 1 69.68 25.25 L 66.33 28.97 A 54 54  0 0 0 30.20 15.10 Z"/>

</svg>
